<svg width="96" height="96" viewBox="0 0 96 96" fill="none" xmlns="http://www.w3.org/2000/svg">
<path d="M0.5 48C0.5 21.7665 21.7665 0.5 48 0.5C74.2335 0.5 95.5 21.7665 95.5 48C95.5 74.2335 74.2335 95.5 48 95.5C21.7665 95.5 0.5 74.2335 0.5 48Z" fill="#FF9B3D" stroke="#111010"/>
<path d="M35.4648 51.18C34.6948 51.18 34.0248 51.04 33.4548 50.76C32.8848 50.48 32.4448 50.09 32.1348 49.59C31.8248 49.09 31.6698 48.51 31.6698 47.85H32.9898C32.9898 48.26 33.0848 48.64 33.2748 48.99C33.4648 49.33 33.7398 49.605 34.0998 49.815C34.4698 50.015 34.9248 50.115 35.4648 50.115C36.1748 50.115 36.7248 49.945 37.1148 49.605C37.5048 49.265 37.6998 48.84 37.6998 48.33C37.6998 47.91 37.6098 47.575 37.4298 47.325C37.2498 47.065 37.0048 46.855 36.6948 46.695C36.3948 46.535 36.0448 46.395 35.6448 46.275C35.2548 46.155 34.8448 46.02 34.4148 45.87C33.6048 45.59 33.0048 45.245 32.6148 44.835C32.2248 44.415 32.0298 43.87 32.0298 43.2C32.0198 42.64 32.1498 42.145 32.4198 41.715C32.6898 41.275 33.0698 40.935 33.5598 40.695C34.0598 40.445 34.6498 40.32 35.3298 40.32C35.9998 40.32 36.5798 40.445 37.0698 40.695C37.5698 40.945 37.9548 41.29 38.2248 41.73C38.5048 42.17 38.6498 42.67 38.6598 43.23H37.3398C37.3398 42.94 37.2648 42.655 37.1148 42.375C36.9648 42.085 36.7348 41.85 36.4248 41.67C36.1248 41.49 35.7448 41.4 35.2848 41.4C34.7148 41.39 34.2448 41.535 33.8748 41.835C33.5148 42.135 33.3348 42.55 33.3348 43.08C33.3348 43.53 33.4598 43.875 33.7098 44.115C33.9698 44.355 34.3298 44.555 34.7898 44.715C35.2498 44.865 35.7798 45.04 36.3798 45.24C36.8798 45.42 37.3298 45.63 37.7298 45.87C38.1298 46.11 38.4398 46.42 38.6598 46.8C38.8898 47.18 39.0048 47.665 39.0048 48.255C39.0048 48.755 38.8748 49.23 38.6148 49.68C38.3548 50.12 37.9598 50.48 37.4298 50.76C36.9098 51.04 36.2548 51.18 35.4648 51.18ZM40.1316 51L44.0016 40.5H45.3366L49.1916 51H47.8566L46.8966 48.3H42.4266L41.4516 51H40.1316ZM42.8016 47.28H46.5216L44.6616 42.09L42.8016 47.28ZM50.7526 51V40.5H52.0126V49.995H56.9026V51H50.7526ZM58.6334 51V40.5H65.1284V41.535H59.8934V45.195H64.6784V46.215H59.8934V49.965H65.1284V51H58.6334Z" fill="#111010"/>
</svg>
